<svg xmlns="http://www.w3.org/2000/svg" fill="#d7dae0" viewBox="0 0 64 64"> <path d="M10 32A2 2 0 018 34 2 2 0 016 32a2 2 0 012-2 2 2 0 012 2Zm48 0a2 2 0 01-2 2 2 2 0 01-2-2 2 2 0 012-2 2 2 0 012 2ZM34 56a2 2 0 01-2 2 2 2 0 01-2-2 2 2 0 012-2 2 2 0 012 2ZM34 8a2 2 0 01-2 2A2 2 0 0130 8a2 2 0 012-2 2 2 0 012 2ZM13.44 11.41S28.11 23.1 32 26.61c3.9 3.52 1.87 1.5 5.39 5.39 3.52 3.9 15.17 18.56 15.17 18.56.53.53.53 1.44 0 2-.56.56-1.47.56-2 .03L32 37.39c-3.25-2.67-2.72-2.14-5.39-5.39L11.44 13.44a1.45 1.45 0 010-2 1.41 1.41 0 012 0ZM29.71.06A32 32 0 009.36 9.36a32 32 0 000 45.28 32 32 0 0045.28 0 32 32 0 000-45.28A32 32 0 0029.71.06ZM32 4A28 28 0 0160 32 28 28 0 0153.67 49.66a2.8 2.83 45 01-.12 3.89 2.8 2.83 45 01-3.88.1A28 28 0 0132 60 28 28 0 014 32a28 28 0 016.34-17.67 2.8 2.83 45 01.11-3.88 2.8 2.83 45 012.01-.83 2.8 2.83 45 011.85.74A28 28 0 0132 4Z"/></svg>
