<svg xmlns="http://www.w3.org/2000/svg" viewBox="0 0 48 48"><path fill="#333" d="M37.05 11.8c-2.12.1-2.8 2.13-2.8 3.07v.16h2.4v-.15c0-.54.1-.95.57-.95s.54.46.55.79-.25.67-.45.69c-.2.01-.66.1-.66.1v2.05h.8c.2.19.34.46.34.86s-.14.94-.5.94-.62-.14-.64-.47v-.33H34.1c.06 1.67.67 2.93 3.03 2.9.21-.01 3.04-.06 3.04-2.74 0-.98-.4-1.86-.95-2.11.5-.55.96-1.17.95-1.97 0-2.38-2.6-2.87-3.12-2.84zm-15.13.2-1.12 1.13v2.23l1.12-.97v6.73H24V12h-2.08zm7.5 0c-1.43 0-2.52 1.14-3.04 2.72v.15h2.57v-.15c0-.45.18-.65.6-.65.41 0 .48.54.47.96-.01.42-.19.66-.43.97l-3.05 3.36v1.77h5.92v-2.08h-2.72l2.24-2.57c.32-.53.5-1 .48-1.43-.12-2.63-1.63-3.05-3.05-3.05zm-16.47 6.56V35.2L8 30.4l-2.08 2.08L13.44 40h2.08l7.51-7.52-2.08-2.23L16 35.2V18.56h-3.05z"/></svg>
