<svg xmlns="http://www.w3.org/2000/svg" viewBox="0 0 48 48"><path fill="#333" d="m13.44 8-7.52 7.52L8 17.59l4.95-4.95v16.8H16v-16.8l4.95 4.95 2.08-2.07L15.52 8h-2.08zm23.6 18.67c-2.11.11-2.79 2.14-2.79 3.08v.16h2.4v-.16c0-.53.1-.94.57-.95.47 0 .54.47.55.8.01.32-.25.66-.45.68s-.66.11-.66.11v2.05h.8c.2.18.34.45.34.86 0 .4-.14.93-.5.93s-.62-.14-.64-.46v-.33H34.1c.06 1.66.67 2.92 3.03 2.89.21 0 3.04-.05 3.04-2.74 0-.98-.4-1.86-.95-2.1.5-.55.96-1.17.95-1.97 0-2.39-2.6-2.88-3.12-2.85zm-15.12.2L20.8 28v2.23l1.12-.96V36H24v-9.13h-2.08zm7.5 0c-1.43 0-2.52 1.15-3.04 2.72v.16h2.57v-.16c0-.44.18-.64.6-.65.41 0 .48.55.47.97-.01.41-.19.65-.43.96l-3.05 3.36V36h5.92v-2.08h-2.72l2.24-2.56c.32-.53.5-1 .48-1.44-.12-2.62-1.63-3.05-3.05-3.05z"/></svg>
